# xmcd CD database file
#
# Track frame offsets:
#	150
#	17868
#	73480
#	90440
#	106337
#	127869
#	167550
#	180586
#
# Disc length: 2703 seconds
#
# Revision: 0
# Processed by: cddbd v1.5PL3 Copyright (c) Steve Scherf et al.
# Submitted via: CDex 1.51
#
DISCID=610a8d08
DTITLE=fromanhole - out of the flats
DYEAR=1900
DGENRE=New Age
TTITLE0=back then
TTITLE1=drop f
TTITLE2=monkey wrench
TTITLE3=semon of waste and planned obsolescence
TTITLE4=relativist correction factor
TTITLE5=from omaha
TTITLE6=some theories about transversing a line from point a to point b
TTITLE7=out of the flats
EXTD=
EXTT0=
EXTT1=
EXTT2=
EXTT3=
EXTT4=
EXTT5=
EXTT6=
EXTT7=
PLAYORDER=
